<svg width="32" height="33" viewBox="0 0 32 33" fill="none" xmlns="http://www.w3.org/2000/svg">
<ellipse cx="15.8799" cy="15.8798" rx="15.8799" ry="15.8798" transform="matrix(0.999971 -0.00760033 0.00759392 0.999971 0 0.618469)" fill="url(#paint0_linear_28_10)"/>
<path d="M8.9375 24V9.45455H15.2159C16.2955 9.45455 17.2401 9.65104 18.0497 10.044C18.8594 10.437 19.4891 11.0028 19.9389 11.7415C20.3887 12.4801 20.6136 13.3655 20.6136 14.3977C20.6136 15.4394 20.3816 16.3177 19.9176 17.0327C19.4583 17.7476 18.812 18.2874 17.9787 18.652C17.1501 19.0166 16.1818 19.1989 15.0739 19.1989H11.3239V16.1307H14.2784C14.7424 16.1307 15.1378 16.0739 15.4645 15.9602C15.7959 15.8419 16.0492 15.6548 16.2244 15.3991C16.4044 15.1435 16.4943 14.8097 16.4943 14.3977C16.4943 13.9811 16.4044 13.6425 16.2244 13.3821C16.0492 13.117 15.7959 12.9228 15.4645 12.7997C15.1378 12.6719 14.7424 12.608 14.2784 12.608H12.8864V24H8.9375ZM17.4602 17.3239L21.0966 24H16.8068L13.2557 17.3239H17.4602Z" fill="white"/>
<ellipse cx="22.5245" cy="18.7869" rx="1.52447" ry="1.44704" fill="#7FAADD"/>
<defs>
<linearGradient id="paint0_linear_28_10" x1="6.88372" y1="0.608149" x2="23.833" y2="30.664" gradientUnits="userSpaceOnUse">
<stop stop-color="#2E79B2"/>
<stop offset="1" stop-color="#1C4668"/>
</linearGradient>
</defs>
</svg>
